<?xml version="1.0" encoding="utf-8"?>
<!-- Generator: Adobe Illustrator 24.1.0, SVG Export Plug-In . SVG Version: 6.00 Build 0)  -->
<svg version="1.1" id="sparkle" xmlns="http://www.w3.org/2000/svg" xmlns:xlink="http://www.w3.org/1999/xlink" x="0px" y="0px"
	 viewBox="0 0 103.1 105.3" style="enable-background:new 0 0 103.1 105.3;" xml:space="preserve">
<style type="text/css">
	.st0{fill:none;stroke:#FFFFFF;stroke-linejoin:bevel;stroke-miterlimit:10;}
	.st1{stroke:#FFFFFF;stroke-linejoin:bevel;stroke-miterlimit:10;}
</style>
<polygon class="st0" points="77.4,53.4 95.7,78.4 64.9,75 52.4,103.4 39.9,75 9.1,78.4 27.4,53.4 9.1,28.4 39.9,31.7 52.4,3.4 
	64.9,31.7 95.7,28.4 "/>
<circle class="st0" cx="24.3" cy="14" r="4.1"/>
<circle class="st0" cx="82.3" cy="90.5" r="2.5"/>
<path class="st1" d="M72.9,76.4c0,5.3-4.3,9.6-9.6,9.6s-9.6-4.3-9.6-9.6s9.6-17.7,9.6-17.7S72.9,71.1,72.9,76.4z"/>
<path class="st1" d="M84,55c0,3.3-2.7,6-6,6c-3.3,0-6-2.7-6-6s6-11.1,6-11.1S84,51.6,84,55z"/>
</svg>
