<?xml version="1.0" encoding="utf-8"?>
<!-- Generator: Adobe Illustrator 24.1.0, SVG Export Plug-In . SVG Version: 6.00 Build 0)  -->
<svg version="1.1" id="sparkle" xmlns="http://www.w3.org/2000/svg" xmlns:xlink="http://www.w3.org/1999/xlink" x="0px" y="0px"
	 viewBox="0 0 103.1 105.3" style="enable-background:new 0 0 103.1 105.3;" xml:space="preserve">
<style type="text/css">
	.st0{fill:none;stroke:#FFFFFF;stroke-width:0.5;stroke-linejoin:bevel;stroke-miterlimit:10;}
	.st1{fill:none;stroke:#FFFFFF;stroke-width:0.5;stroke-miterlimit:10;}
</style>
<polygon class="st0" points="77.4,53.4 95.7,78.4 64.9,75 52.4,103.4 39.9,75 9.1,78.4 27.4,53.4 9.1,28.4 39.9,31.7 52.4,3.4 
	64.9,31.7 95.7,28.4 "/>
<circle class="st0" cx="24.3" cy="14" r="4.1"/>
<g>
	<line class="st1" x1="76.2" y1="80.9" x2="76.2" y2="97.5"/>
	<line class="st1" x1="84.5" y1="89.9" x2="67.9" y2="89.9"/>
	<line class="st1" x1="82.2" y1="95.8" x2="70.4" y2="84"/>
	<line class="st1" x1="70.4" y1="95.7" x2="82.2" y2="83.9"/>
</g>
<g>
	<line class="st1" x1="57" y1="44.4" x2="57" y2="70.5"/>
	<line class="st1" x1="70.1" y1="58.5" x2="44" y2="58.5"/>
	<line class="st1" x1="66.4" y1="67.8" x2="47.9" y2="49.4"/>
	<line class="st1" x1="48" y1="67.6" x2="66.4" y2="49.2"/>
</g>
</svg>
