<?xml version="1.0" encoding="utf-8"?>
<!-- Generator: Adobe Illustrator 24.1.0, SVG Export Plug-In . SVG Version: 6.00 Build 0)  -->
<svg version="1.1" id="sparkle" xmlns="http://www.w3.org/2000/svg" xmlns:xlink="http://www.w3.org/1999/xlink" x="0px" y="0px"
	 viewBox="0 0 119.4 105.3" style="enable-background:new 0 0 119.4 105.3;" xml:space="preserve">
<style type="text/css">
	.st0{fill:none;stroke:#FFFFFF;stroke-width:0.5;stroke-linejoin:bevel;stroke-miterlimit:10;}
	.st1{stroke:#FFFFFF;stroke-width:0.5;stroke-linejoin:bevel;stroke-miterlimit:10;}
</style>
<path class="st0" d="M51.9,99C25.8,99,4.6,77.8,4.6,51.7S25.8,4.4,51.9,4.4c9.8,0,18.9,3,26.4,8.1"/>
<path class="st1" d="M24.5,20.7c-4.5-0.4-8.1-3.9-8.6-8.3c-0.5,4.5-4.2,8-8.7,8.3c4.6,0.3,8.3,4.1,8.7,8.7
	C16.3,24.8,19.9,21.1,24.5,20.7z"/>
<circle class="st0" cx="32.3" cy="38" r="11.3"/>
<polyline class="st0" points="78.3,12.5 58.2,36.9 74.5,47.8 44,69.6 51.9,99 "/>
<path class="st0" d="M93.4,12.9c12.6,8.5,20.9,22.9,20.9,39.2c0,26.1-21.2,47.3-47.3,47.3"/>
<polyline class="st0" points="93.4,12.9 73.3,37.4 89.5,48.3 59.1,70 67,99.5 "/>
<path class="st1" d="M105.6,86c-3-0.2-5.3-2.5-5.7-5.5c-0.3,3-2.7,5.3-5.7,5.5c3.1,0.2,5.5,2.7,5.7,5.7
	C100.1,88.7,102.5,86.2,105.6,86z"/>
</svg>
