<?xml version="1.0" encoding="utf-8"?>
<!-- Generator: Adobe Illustrator 24.1.0, SVG Export Plug-In . SVG Version: 6.00 Build 0)  -->
<svg version="1.1" id="sparkle" xmlns="http://www.w3.org/2000/svg" xmlns:xlink="http://www.w3.org/1999/xlink" x="0px" y="0px"
	 viewBox="0 0 103.1 105.3" style="enable-background:new 0 0 103.1 105.3;" xml:space="preserve">
<style type="text/css">
	.st0{fill:none;stroke:#FFFFFF;stroke-linejoin:bevel;stroke-miterlimit:10;}
	.st1{stroke:#FFFFFF;stroke-linejoin:bevel;stroke-miterlimit:10;}
	.st2{fill:none;stroke:#FFFFFF;stroke-miterlimit:10;}
</style>
<circle class="st0" cx="51.9" cy="51.7" r="47.3"/>
<path class="st1" d="M24.5,20.7c-4.5-0.4-8.1-3.9-8.6-8.3c-0.5,4.5-4.2,8-8.7,8.3c4.6,0.3,8.3,4.1,8.7,8.7
	C16.3,24.8,19.9,21.1,24.5,20.7z"/>
<circle class="st0" cx="32.3" cy="38" r="11.3"/>
<g>
	<line class="st2" x1="67.8" y1="63.2" x2="67.8" y2="88.8"/>
	<line class="st2" x1="80.6" y1="77" x2="55" y2="77"/>
	<line class="st2" x1="77" y1="86.1" x2="58.9" y2="68"/>
	<line class="st2" x1="58.9" y1="85.9" x2="77.1" y2="67.8"/>
</g>
<g>
	<line class="st2" x1="81.5" y1="42.1" x2="81.5" y2="57.6"/>
	<line class="st2" x1="89.2" y1="50.5" x2="73.7" y2="50.5"/>
	<line class="st2" x1="87" y1="56" x2="76.1" y2="45.1"/>
	<line class="st2" x1="76.1" y1="55.9" x2="87.1" y2="44.9"/>
</g>
<g>
	<line class="st2" x1="37.4" y1="69.6" x2="37.4" y2="82.9"/>
	<line class="st2" x1="44.1" y1="76.8" x2="30.7" y2="76.8"/>
	<line class="st2" x1="42.2" y1="81.5" x2="32.8" y2="72.1"/>
	<line class="st2" x1="32.8" y1="81.4" x2="42.2" y2="72"/>
</g>
</svg>
