<?xml version="1.0" encoding="utf-8"?>
<!-- Generator: Adobe Illustrator 24.1.0, SVG Export Plug-In . SVG Version: 6.00 Build 0)  -->
<svg version="1.1" id="sparkle" xmlns="http://www.w3.org/2000/svg" xmlns:xlink="http://www.w3.org/1999/xlink" x="0px" y="0px"
	 viewBox="0 0 103.1 105.3" style="enable-background:new 0 0 103.1 105.3;" xml:space="preserve">
<style type="text/css">
	.st0{fill:none;stroke:#FFFFFF;stroke-width:0.5;stroke-linejoin:bevel;stroke-miterlimit:10;}
	.st1{stroke:#FFFFFF;stroke-width:0.5;stroke-linejoin:bevel;stroke-miterlimit:10;}
</style>
<circle class="st0" cx="51.9" cy="51.7" r="47.3"/>
<path class="st1" d="M24.5,20.7c-4.5-0.4-8.1-3.9-8.6-8.3c-0.5,4.5-4.2,8-8.7,8.3c4.6,0.3,8.3,4.1,8.7,8.7
	C16.3,24.8,19.9,21.1,24.5,20.7z"/>
<path class="st1" d="M95,81.3c-3-0.2-5.3-2.5-5.7-5.5c-0.3,3-2.7,5.3-5.7,5.5c3.1,0.2,5.5,2.7,5.7,5.7C89.5,84,91.9,81.5,95,81.3z"
	/>
<circle class="st0" cx="32.3" cy="38" r="11.3"/>
<polyline class="st0" points="71,8.4 62.3,26 79.2,34.4 67.3,49.7 "/>
</svg>
