<?xml version="1.0" encoding="utf-8"?>
<!-- Generator: Adobe Illustrator 24.1.0, SVG Export Plug-In . SVG Version: 6.00 Build 0)  -->
<svg version="1.1" id="sparkle" xmlns="http://www.w3.org/2000/svg" xmlns:xlink="http://www.w3.org/1999/xlink" x="0px" y="0px"
	 viewBox="0 0 107.9 105.3" style="enable-background:new 0 0 107.9 105.3;" xml:space="preserve">
<style type="text/css">
	.st0{fill:none;stroke:#FFFFFF;stroke-width:0.5;stroke-linejoin:bevel;stroke-miterlimit:10;}
	.st1{fill:none;stroke:#FFFFFF;stroke-width:0.5;stroke-miterlimit:10;}
</style>
<circle class="st0" cx="39.4" cy="67.7" r="30.1"/>
<circle class="st0" cx="27" cy="59" r="7.2"/>
<path class="st0" d="M95.2,60.9L62.4,93.7c-13.5,13.5-35.5,13.5-49,0l0,0C0,80.2,0,58.2,13.5,44.8L46.2,12
	c13.5-13.6,35.5-13.6,49-0.1l0,0C108.8,25.5,108.8,47.4,95.2,60.9z"/>
<g>
	<line class="st1" x1="51.8" y1="70.2" x2="51.8" y2="86.7"/>
	<line class="st1" x1="60" y1="79.1" x2="43.6" y2="79.1"/>
	<line class="st1" x1="57.7" y1="84.9" x2="46.1" y2="73.3"/>
	<line class="st1" x1="46.1" y1="84.8" x2="57.8" y2="73.2"/>
</g>
<g>
	<line class="st1" x1="81.8" y1="35.4" x2="81.8" y2="48"/>
	<line class="st1" x1="88.1" y1="42.2" x2="75.5" y2="42.2"/>
	<line class="st1" x1="86.3" y1="46.7" x2="77.4" y2="37.8"/>
	<line class="st1" x1="77.4" y1="46.6" x2="86.4" y2="37.7"/>
</g>
<g>
	<line class="st1" x1="72.8" y1="14.1" x2="72.8" y2="23.3"/>
	<line class="st1" x1="77.4" y1="19.1" x2="68.2" y2="19.1"/>
	<line class="st1" x1="76.1" y1="22.4" x2="69.6" y2="15.8"/>
	<line class="st1" x1="69.6" y1="22.3" x2="76.2" y2="15.7"/>
</g>
</svg>
