<?xml version="1.0" encoding="utf-8"?>
<!-- Generator: Adobe Illustrator 24.1.0, SVG Export Plug-In . SVG Version: 6.00 Build 0)  -->
<svg version="1.1" id="sparkle" xmlns="http://www.w3.org/2000/svg" xmlns:xlink="http://www.w3.org/1999/xlink" x="0px" y="0px"
	 viewBox="0 0 107.9 105.3" style="enable-background:new 0 0 107.9 105.3;" xml:space="preserve">
<style type="text/css">
	.st0{fill:none;stroke:#FFFFFF;stroke-width:0.5;stroke-linejoin:bevel;stroke-miterlimit:10;}
	.st1{stroke:#FFFFFF;stroke-width:0.5;stroke-linejoin:bevel;stroke-miterlimit:10;}
</style>
<circle class="st0" cx="39.4" cy="67.7" r="30.1"/>
<circle class="st0" cx="27" cy="59" r="7.2"/>
<path class="st0" d="M95.2,60.9L62.4,93.7c-13.5,13.5-35.5,13.5-49,0l0,0C0,80.2,0,58.2,13.5,44.8L46.2,12
	c13.5-13.6,35.5-13.6,49-0.1l0,0C108.8,25.5,108.8,47.4,95.2,60.9z"/>
<circle class="st0" cx="69.9" cy="20.3" r="2.5"/>
<path class="st0" d="M87.2,40.6c-3.1-0.3-5.5-2.6-5.8-5.6c-0.3,3.1-2.8,5.4-5.9,5.6c3.1,0.2,5.6,2.7,5.9,5.9
	C81.7,43.4,84.1,41,87.2,40.6z"/>
<path class="st0" d="M44.2,69c0,0,5.3,7.6,5.3,10.5c0,2.9-2.4,5.3-5.3,5.3s-5.3-2.4-5.3-5.3C38.9,76.6,44.2,69,44.2,69z"/>
<path class="st1" d="M58.4,78.6c0,0,7.2,10.4,7.2,14.4s-3.2,7.2-7.2,7.2S51.1,97,51.1,93S58.4,78.6,58.4,78.6z"/>
</svg>
