<?xml version="1.0" encoding="utf-8"?>
<!-- Generator: Adobe Illustrator 24.1.0, SVG Export Plug-In . SVG Version: 6.00 Build 0)  -->
<svg version="1.1" id="sparkle" xmlns="http://www.w3.org/2000/svg" xmlns:xlink="http://www.w3.org/1999/xlink" x="0px" y="0px"
	 viewBox="0 0 107.9 105.3" style="enable-background:new 0 0 107.9 105.3;" xml:space="preserve">
<style type="text/css">
	.st0{fill:none;stroke:#FFFFFF;stroke-width:0.5;stroke-linejoin:bevel;stroke-miterlimit:10;}
	.st1{stroke:#FFFFFF;stroke-width:0.5;stroke-linejoin:bevel;stroke-miterlimit:10;}
</style>
<path class="st0" d="M29.3,96.1c-11.7-4.2-20-15.3-20-28.4c0-16.6,13.5-30.1,30.1-30.1c8.2,0,15.6,3.3,21,8.6"/>
<circle class="st0" cx="27" cy="59" r="7.2"/>
<path class="st0" d="M95.2,60.9L62.4,93.7c-13.5,13.5-35.5,13.5-49,0l0,0C0,80.2,0,58.2,13.5,44.8L46.2,12
	c13.5-13.6,35.5-13.6,49-0.1l0,0C108.8,25.5,108.8,47.4,95.2,60.9z"/>
<circle class="st0" cx="69.9" cy="20.3" r="2.5"/>
<path class="st0" d="M87.2,40.6c-3.1-0.3-5.5-2.6-5.8-5.6c-0.3,3.1-2.8,5.4-5.9,5.6c3.1,0.2,5.6,2.7,5.9,5.9
	C81.7,43.4,84.1,41,87.2,40.6z"/>
<path class="st0" d="M45.7,61.6"/>
<polyline class="st0" points="60.4,46.2 45.3,55.5 47.4,71 28.9,76.4 29.2,96 "/>
<path class="st1" d="M72.9,49.1c5.6,5.5,9.1,13.1,9.1,21.5c0,16.6-13.5,30.1-30.1,30.1c-3.5,0-6.9-0.6-10.1-1.7L41.6,99l-0.3-19.6
	L59.9,74l-2.1-15.5L72.9,49.1"/>
</svg>
