<?xml version="1.0" encoding="utf-8"?>
<!-- Generator: Adobe Illustrator 24.1.0, SVG Export Plug-In . SVG Version: 6.00 Build 0)  -->
<svg version="1.1" id="sparkle" xmlns="http://www.w3.org/2000/svg" xmlns:xlink="http://www.w3.org/1999/xlink" x="0px" y="0px"
	 viewBox="0 0 103.1 105.3" style="enable-background:new 0 0 103.1 105.3;" xml:space="preserve">
<style type="text/css">
	.st0{fill:none;stroke:#FFFFFF;stroke-width:0.5;stroke-linejoin:bevel;stroke-miterlimit:10;}
	.st1{stroke:#FFFFFF;stroke-width:0.5;stroke-linejoin:bevel;stroke-miterlimit:10;}
</style>
<polygon class="st0" points="69.9,74 57.2,62.6 73.1,50.3 60.8,44.9 69.9,30.7 57.4,2.4 44.9,30.7 14.1,27.4 32.4,52.4 14.1,77.4 
	44.9,74 57.4,102.4 "/>
<circle class="st0" cx="24.3" cy="13" r="4.1"/>
<circle class="st0" cx="86.6" cy="84.7" r="2.5"/>
<path class="st1" d="M66.3,59.4c0,0,9.3,12.7,9.3,17.8c0,5.1-4.2,9.3-9.3,9.3S57,82.4,57,77.3C57,72.1,66.3,59.4,66.3,59.4z"/>
<path class="st0" d="M48.5,45.8c0,0,5.9,8,5.9,11.2s-2.6,5.9-5.9,5.9s-5.9-2.6-5.9-5.9S48.5,45.8,48.5,45.8z"/>
</svg>
