<?xml version="1.0" encoding="utf-8"?>
<!-- Generator: Adobe Illustrator 24.1.0, SVG Export Plug-In . SVG Version: 6.00 Build 0)  -->
<svg version="1.1" id="sparkle" xmlns="http://www.w3.org/2000/svg" xmlns:xlink="http://www.w3.org/1999/xlink" x="0px" y="0px"
	 viewBox="0 0 103.1 105.3" style="enable-background:new 0 0 103.1 105.3;" xml:space="preserve">
<style type="text/css">
	.st0{fill:none;stroke:#FFFFFF;stroke-width:0.5;stroke-linejoin:bevel;stroke-miterlimit:10;}
	.st1{fill:none;stroke:#FFFFFF;stroke-width:0.5;stroke-miterlimit:10;}
</style>
<polygon class="st0" points="69.9,74 57.2,62.6 73.1,50.3 60.8,44.9 69.9,30.7 57.4,2.4 44.9,30.7 14.1,27.4 32.4,52.4 14.1,77.4 
	44.9,74 57.4,102.4 "/>
<circle class="st0" cx="24.3" cy="13" r="4.1"/>
<g>
	<line class="st1" x1="48.3" y1="50.2" x2="48.3" y2="63.5"/>
	<line class="st1" x1="55" y1="57.4" x2="41.6" y2="57.4"/>
	<line class="st1" x1="53.1" y1="62.1" x2="43.7" y2="52.7"/>
	<line class="st1" x1="43.7" y1="62" x2="53.1" y2="52.6"/>
</g>
<g>
	<line class="st1" x1="59.4" y1="71.7" x2="59.4" y2="79.7"/>
	<line class="st1" x1="63.4" y1="76" x2="55.3" y2="76"/>
	<line class="st1" x1="62.3" y1="78.9" x2="56.6" y2="73.2"/>
	<line class="st1" x1="56.6" y1="78.8" x2="62.3" y2="73.1"/>
</g>
<g>
	<line class="st1" x1="84" y1="72.9" x2="84" y2="88.8"/>
	<line class="st1" x1="92.1" y1="81.5" x2="76" y2="81.5"/>
	<line class="st1" x1="89.8" y1="87.2" x2="78.5" y2="75.9"/>
	<line class="st1" x1="78.5" y1="87" x2="89.8" y2="75.8"/>
</g>
</svg>
