<svg class="card" version="1.1" id="sparkle" xmlns="http://www.w3.org/2000/svg" xmlns:xlink="http://www.w3.org/1999/xlink" x="0px" y="0px"
	 viewBox="0 0 52.3 64.4" style="enable-background:new 0 0 52.3 64.4;" xml:space="preserve">
<style type="text/css">
	.sqqw{fill:none;stroke:#000000;stroke-width:0.25;stroke-miterlimit:10;}
</style>
<g id="gsNilF.tif">

		<image style="overflow:visible;" width="770" height="1011" xlink:href="../img/sps.png"  transform="matrix(5.712167e-02 0 0 5.712167e-02 4.135 3.3073)">
	</image>
</g>
<path class="sqqw" d="M47.6,63.1H4.7c-1.4,0-2.6-1.2-2.6-2.6V3.9c0-1.4,1.2-2.6,2.6-2.6h42.8c1.4,0,2.6,1.2,2.6,2.6v56.7
	C50.2,62,49,63.1,47.6,63.1z"/>
<path class="sqqw" d="M45.3,60.9H6.9c-1.4,0-2.6-1.2-2.6-2.6V6.1c0-1.4,1.2-2.6,2.6-2.6h38.5c1.4,0,2.6,1.2,2.6,2.6v52.2
	C47.9,59.7,46.8,60.9,45.3,60.9z"/>
</svg>
