<svg class="card2" version="1.1" id="sparkle" xmlns="http://www.w3.org/2000/svg" xmlns:xlink="http://www.w3.org/1999/xlink" x="0px" y="0px"
	 viewBox="0 0 220.8 280.2" style="enable-background:new 0 0 220.8 280.2;" xml:space="preserve">
<style type="text/css">
	.wwq{fill:none;stroke:#FFFFFF;stroke-miterlimit:10;}
	.qwe{stroke:#FFFFFF;stroke-miterlimit:10;}
	.wwwq{stroke:#FFFFFF;stroke-linejoin:bevel;stroke-miterlimit:10;}
	.rtt{fill:#FFFFFF;}
</style>
<image style="overflow:visible;" width="709" height="946" xlink:href='img/E320651C660B45B7.jpg'  transform="matrix(0.2645 0 0 0.2645 17.7013 14.0946)">
</image>
<path d="M188.3,264.5c0,0,14.7-1.8,15.9-15c1.2-13.2,5.4,0.7,5.4,0.7l-1.7,17l-16.3,2.4L188.3,264.5z"/>
<path d="M17.1,247.6c0,0,1.8,14.7,15,15.9s-0.7,5.4-0.7,5.4l-17-1.7L12,251L17.1,247.6z"/>
<path d="M205.6,31.2c0,0-1.8-14.7-15-15.9s0.7-5.4,0.7-5.4l17,1.7l2.4,16.3L205.6,31.2z"/>
<path d="M33.4,14.1c0,0-14.7,1.8-15.9,15s-5.4-0.7-5.4-0.7l1.7-17l16.3-2.4L33.4,14.1z"/>
<path class="wwq" d="M201.6,275.7H20.9c-8.5,0-15.5-6.9-15.5-15.5V17.9c0-8.5,6.9-15.5,15.5-15.5h180.7c8.5,0,15.5,6.9,15.5,15.5
	v242.3C217,268.7,210.1,275.7,201.6,275.7z"/>
<path class="wwq" d="M189,263.5H33.5c-8.5,0-15.5-6.9-15.5-15.5V30.5C18.1,21.9,25,15,33.5,15H189c8.5,0,15.5,6.9,15.5,15.5v217.6
	C204.4,256.6,197.5,263.5,189,263.5z"/>
<circle class="qwe" cx="120.6" cy="123.9" r="39.6"/>
<circle class="wwq" cx="106" cy="111.2" r="10.1"/>
<path class="wwq" d="M160,119.4c16.3,1.9,26.9,4.9,26.9,8.3c0,5.7-29.6,10.3-66.1,10.3s-66.1-4.6-66.1-10.3c0-3.4,10.4-6.4,26.5-8.3
	"/>
<path class="wwq" d="M81.3,119.3"/>
<path class="wwwq" d="M175.2,53.6c-3.7-0.3-6.6-3.1-7-6.8c-0.4,3.7-3.4,6.5-7.1,6.8c3.8,0.3,6.8,3.3,7.1,7.1
	C168.4,57,171.4,54,175.2,53.6z"/>
<path class="wwwq" d="M75.4,200.7c-2.8-0.2-5.1-2.4-5.4-5.2c-0.3,2.8-2.6,5-5.4,5.2c2.9,0.2,5.2,2.5,5.4,5.4
	C70.2,203.3,72.5,201,75.4,200.7z"/>
<circle class="wwq" cx="49.6" cy="58.7" r="2.9"/>
<circle class="rtt" cx="152.2" cy="223.4" r="1.9"/>
</svg>
