<svg class="katalog_fonpic" version="1.1" id="Layer_1" xmlns="http://www.w3.org/2000/svg" xmlns:xlink="http://www.w3.org/1999/xlink" x="0px" y="0px"
	 viewBox="0 0 499.5 484.8" style="enable-background:new 0 0 499.5 484.8;" xml:space="preserve">
<style type="text/css">
	.smt0{fill:none;stroke:#000000;stroke-miterlimit:10;}
</style>
<ellipse transform="matrix(0.7071 -0.7071 0.7071 0.7071 -94.208 250.0204)" cx="254.7" cy="238.7" rx="14.9" ry="10.9"/>
<ellipse transform="matrix(0.7071 -0.7071 0.7071 0.7071 -93.5334 249.8888)" class="smt0" cx="254.9" cy="237.8" rx="39.4" ry="25.9"/>
<ellipse transform="matrix(0.7071 -0.7071 0.7071 0.7071 -94.4486 249.8055)" class="smt0" cx="254.3" cy="238.9" rx="70.9" ry="46.6"/>
<ellipse transform="matrix(0.7071 -0.7071 0.7071 0.7071 -94.1917 249.9512)" class="smt0" cx="254.6" cy="238.7" rx="114.4" ry="75.3"/>
<ellipse transform="matrix(0.7071 -0.7071 0.7071 0.7071 -93.9621 250.1479)" class="smt0" cx="255" cy="238.5" rx="160.5" ry="105.5"/>
<ellipse transform="matrix(0.7071 -0.7071 0.7071 0.7071 -94.4127 250.4909)" class="smt0" cx="255.2" cy="239.2" rx="213.1" ry="140.5"/>
<ellipse transform="matrix(0.7071 -0.7071 0.7071 0.7071 -96.9122 252.981)" class="smt0" cx="256.9" cy="243.5" rx="269.7" ry="176.5"/>
</svg>
