<svg class="page_pic" version="1.1" id="sparkle" xmlns="http://www.w3.org/2000/svg" xmlns:xlink="http://www.w3.org/1999/xlink" x="0px" y="0px" viewBox="0 0 103.1 105.3" style="enable-background:new 0 0 103.1 105.3;" xml:space="preserve">
        <style type="text/css">
        	.rrr{fill:none;stroke:#FFFFFF;stroke-linejoin:bevel;stroke-width:0.4;stroke-miterlimit:10;}
        	.rre{stroke:#FFFFFF;stroke-linejoin:bevel;stroke-width:0.4;stroke-miterlimit:10;}
        </style>
        <circle class="rrr" cx="51.9" cy="52.7" r="47.3"></circle>
        <path class="rre" d="M24.5,21.7c-4.5-0.4-8.1-3.9-8.6-8.3c-0.5,4.5-4.2,8-8.7,8.3c4.6,0.3,8.3,4.1,8.7,8.7
        	C16.3,25.8,19.9,22.1,24.5,21.7z"></path>
        <path class="rre" d="M95,82.3c-3-0.2-5.3-2.5-5.7-5.5c-0.3,3-2.7,5.3-5.7,5.5c3.1,0.2,5.5,2.7,5.7,5.7C89.5,85,91.9,82.5,95,82.3z"></path>
        <circle class="rrr" cx="32.3" cy="39" r="11.3"></circle>
        <polyline class="rrr" points="71,9.4 62.3,27 79.2,35.4 67.3,50.7 "></polyline>
        </svg>