<svg class="" version="1.1" id="Layer_1" xmlns="http://www.w3.org/2000/svg" xmlns:xlink="http://www.w3.org/1999/xlink" x="0px" y="0px"
	 viewBox="0 0 240.5 336.6" style="enable-background:new 0 0 240.5 336.6;" xml:space="preserve">
<style type="text/css">
	.ers{fill:none;stroke:#000000;stroke-miterlimit:10;}
	.s33{fill:none;}
</style>
<polygon class="ers" points="155.6,216 145.6,170.4 135.3,218 95,191.2 120.8,231.5 74,242 121.3,252 94.8,292.5 133.8,267.5
	133.9,236 150.9,241.2 "/>
<polygon class="ers" points="168.3,230 207.5,204.7 181.7,244.8 228.7,255.3 181.5,265.4 208,306.2 166.8,279.2 156.7,326.1
	146.6,280.7 146.8,251.4 163.4,256 "/>
<circle cx="146.8" cy="229" r="2"/>
<circle cx="173" cy="246.4" r="2"/>
<line class="s33" x1="73.6" y1="199.3" x2="37.1" y2="161.5"/>
<line class="s33" x1="41.7" y1="117.5" x2="66.4" y2="90.3"/>
<line class="s33" x1="102.1" y1="62" x2="137.1" y2="46.7"/>
<line class="ers" x1="83.2" y1="62.9" x2="83.2" y2="79.9"/>
<line class="ers" x1="91.7" y1="71.4" x2="74.7" y2="71.4"/>
<circle class="ers" cx="23.8" cy="137.3" r="12.2"/>
<path d="M35.9,137.4c0,6.7-5.5,12.2-12.2,12.2s-12.2-5.5-12.2-12.2"/>
<polygon class="ers" points="149.1,12 171.3,41.4 158.5,49.8 173.7,46.5 176.9,62.8 178.4,45.7 194.8,48.4 179.1,40.6 185.9,26.5
	175.5,37.7 "/>
<line class="ers" x1="80.8" y1="181.2" x2="45.8" y2="154"/>
<line class="ers" x1="39.5" y1="115.8" x2="67.6" y2="88.3"/>
<line class="ers" x1="102.1" y1="62" x2="143" y2="48.8"/>
</svg>
