<svg class="sozvezdie1" version="1.1" id="Layer_1" xmlns="http://www.w3.org/2000/svg" xmlns:xlink="http://www.w3.org/1999/xlink" x="0px" y="0px"
	 viewBox="0 0 349.5 359.8" style="enable-background:new 0 0 349.5 359.8;" xml:space="preserve">
<style type="text/css">
	.st90{fill:none;stroke:#000000;stroke-miterlimit:10;}
	.st91{fill:#020203;}
</style>
<polygon class="st0" points="100.1,177.1 85.8,235.9 30.5,210.2 67.9,258 13.9,284.3 74.6,285.6 61.7,344.2 100.3,297.6
	138.1,343.8 125.4,284.7 185.9,284.5 132,258 169.4,210.2 114,235.9 "/>
<polyline class="st0" points="108.5,273.3 117.9,263.5 98.7,259.6 114,235.9 "/>
<path class="st0" d="M89.1,282.9c0-6.6,5.3-11.9,11.9-11.9s11.9,5.3,11.9,11.9"/>
<circle cx="84.9" cy="262.8" r="2.3"/>
<circle cx="118.4" cy="262.9" r="2.3"/>
<line class="st0" x1="92.2" y1="22.2" x2="106.6" y2="30.4"/>
<line class="st0" x1="103.5" y1="19.1" x2="95.3" y2="33.5"/>
<line class="st0" x1="100.5" y1="64.8" x2="101.4" y2="145"/>
<line class="st0" x1="217.4" y1="290.3" x2="261.1" y2="302.8"/>
<circle class="st0" cx="315.2" cy="326.6" r="27.6"/>
<path class="st1" d="M333.4,326.1c-9.7-0.8-17.5-8.3-18.6-17.9c-1.1,9.7-8.9,17.3-18.7,18c10,0.7,18,8.7,18.7,18.7
	C315.5,334.9,323.4,326.9,333.4,326.1z"/>
</svg>
