<svg version="1.1" id="Layer_1" xmlns="http://www.w3.org/2000/svg" xmlns:xlink="http://www.w3.org/1999/xlink" x="0px" y="0px"
	 viewBox="0 0 518.8 359.8" style="enable-background:new 0 0 518.8 359.8;" xml:space="preserve">
<style type="text/css">
	.wee{fill:none;stroke:#000000;stroke-miterlimit:10;}
	.qqq{fill:#FFFFFF;stroke:#000000;stroke-miterlimit:10;}
	.s232{fill:none;stroke:#000000;stroke-linejoin:bevel;stroke-miterlimit:10;}
</style>
<polygon class="wee" points="306.8,173.2 291.7,229.5 236.3,214.4 276.9,255.9 237.2,295.7 292,281.5 307.1,336.6 321.9,280.6
	375.6,295.7 337.2,256.5 376.2,214.7 321.9,228.9 "/>
<path class="wee" d="M292.9,272c0-7.8,6.3-14.2,14.2-14.2s14.2,6.3,14.2,14.2"/>
<circle class="qqq" cx="335.9" cy="269.8" r="19.5"/>
<circle class="qqq" cx="318.6" cy="302" r="10.1"/>
<circle class="qqq" cx="362.2" cy="239.7" r="10.1"/>
<circle cx="292.6" cy="249.8" r="2.4"/>
<circle cx="321.5" cy="249.8" r="2.4"/>
<line class="wee" x1="408" y1="212.9" x2="457.3" y2="189.9"/>
<line class="wee" x1="97.6" y1="204.1" x2="200.6" y2="241.1"/>
<line class="wee" x1="88.5" y1="135.2" x2="124.1" y2="88.8"/>
<path class="s232" d="M51.9,197.2c-9.9-1-17.8-10.3-19.1-22.3c-1.2,12-9.3,21.5-19.3,22.3c10.3,1,18.5,10.9,19.3,23.3
	C33.4,208.2,41.5,198.3,51.9,197.2z"/>
<path class="s232" d="M75.4,165.8c-6.1-0.6-11.2-6.3-11.8-13.8c-0.8,7.3-5.7,13.2-12,13.8c6.3,0.6,11.4,6.7,12,14.4
	C64,172.5,69.1,166.4,75.4,165.8z"/>
<line class="wee" x1="165.9" y1="34.2" x2="165.9" y2="71.2"/>
<line class="wee" x1="184.3" y1="54.2" x2="147.4" y2="54.2"/>
<line class="wee" x1="179.1" y1="67.3" x2="153" y2="41.2"/>
<line class="wee" x1="153.1" y1="67" x2="179.2" y2="40.9"/>
<circle class="wee" cx="166.4" cy="54.2" r="31.5"/>
<ellipse cx="495.4" cy="175" rx="14.6" ry="25"/>
</svg>
