<svg version="1.1" id="Layer_1" xmlns="http://www.w3.org/2000/svg" xmlns:xlink="http://www.w3.org/1999/xlink" x="0px" y="0px"
	 viewBox="0 0 382.8 159.4" style="enable-background:new 0 0 382.8 159.4;" xml:space="preserve">
<style type="text/css">
	.dsd{fill:none;stroke:#000000;stroke-miterlimit:10;}
	.drt{fill:#FFFFFF;stroke:#000000;stroke-miterlimit:10;}
</style>
<polygon class="dsd" points="290.2,79 270.7,43.9 302.2,69.4 309.9,29.9 317.4,69.3 348.8,44.2 329.3,79.3 369.4,80.2 331.5,94.5
	362.2,121.1 323.3,107.5 330.1,146.5 309.5,112.7 288.9,147.4 295.4,107.7 257.1,120.6 287.5,94.3 250.2,79.6 "/>
<path class="dsd" d="M300,101.9c0-5.5,4.4-9.9,9.9-9.9s9.9,4.4,9.9,9.9"/>
<circle cx="299.7" cy="86.1" r="1.7"/>
<circle cx="319.8" cy="86.1" r="1.7"/>
<path class="drt" d="M328.7,109.7c0,4.2-3.4,7.7-7.7,7.7c-4.2,0-7.7-3.4-7.7-7.7c0-4.2,7.7-18.7,7.7-18.7S328.7,105.4,328.7,109.7z"
	/>
<path class="drt" d="M339.3,127.9c0,2.5-2,4.5-4.5,4.5s-4.5-2-4.5-4.5c0-2.5,4.5-10.9,4.5-10.9S339.3,125.4,339.3,127.9z"/>
<ellipse transform="matrix(0.3827 -0.9239 0.9239 0.3827 81.0516 167.1778)" class="drt" cx="165.6" cy="22.9" rx="8.4" ry="8.4"/>
<polygon class="dsd" points="134.6,118.7 139.2,106.3 140.8,119.5 153.3,115.6 143.8,124.9 155.7,132.4 141.7,130.5 143.6,143.9
	136.4,132.3 127.1,141.4 131.2,128.9 118.1,127.5 130.5,123.3 123.3,111.6 "/>
<line class="dsd" x1="189.2" y1="25.2" x2="244.2" y2="50.7"/>
<line class="dsd" x1="155.9" y1="50.9" x2="151.3" y2="97.5"/>
<line class="dsd" x1="103.1" y1="119.5" x2="70.9" y2="119.5"/>
<circle cx="33.3" cy="114.8" r="9.4"/>
<circle cx="47.4" cy="114.4" r="9.4"/>
<circle cx="33.3" cy="128.6" r="9.4"/>
<circle cx="47.3" cy="128.7" r="9.4"/>
<rect x="35.9" y="116.9" width="8.6" height="9"/>
<rect x="34.6" y="115" class="drt" width="11.2" height="13.5"/>
</svg>
