<svg class="twitter" version="1.1" id="sparkle" xmlns="http://www.w3.org/2000/svg" xmlns:xlink="http://www.w3.org/1999/xlink" x="0px" y="0px"
	 viewBox="0 0 204.6 173.4" style="enable-background:new 0 0 204.6 173.4;" xml:space="preserve">
<style type="text/css">
	.bbe{fill:none;stroke:#FFFFFF;stroke-width:0.5;stroke-miterlimit:10;}
</style>
<path class="bbe" d="M26.6,18.4c0,0,35.6,47.8,80.5,47c0,0-9-36.1,27.4-51.4c0,0,26.1-10.1,36.1,11.4c0,0,20.4,2.8,27.1-8.3
	c0,0-6.5,25-18.6,29.2c0,0-2.6,62.1-26.1,85.7c-11.3,11.3-72.3,40.8-139.4,19.6c0,0,45.9,0.5,59.6-17.8c0,0-30.2,3.6-40-27.6
	l16.5,0.3c0,0-29.7-12.6-29.4-40.5l18.3,5.9C38.7,71.8,12.9,58.5,26.6,18.4z"/>
</svg>
