<svg class="star2" version="1.1" id="Layer_1" xmlns="http://www.w3.org/2000/svg" xmlns:xlink="http://www.w3.org/1999/xlink" x="0px" y="0px"
	 viewBox="0 0 1133.7 1145.4" style="enable-background:new 0 0 1133.7 1145.4;" xml:space="preserve">
<style type="text/css">
	.st10{fill:none;stroke:#FFFFFF;stroke-width:6;stroke-miterlimit:10;}
	.st11{fill:none;stroke:#FFFFFF;stroke-width:6;stroke-miterlimit:10;stroke-dasharray:30.3231,30.3231;}
	.st12{stroke:#FFFFFF;stroke-width:6;stroke-miterlimit:10;}
	.st13{fill:#FFFFFF;}
</style>
<g>
	<g>
		<line class="st10" x1="177.5" y1="189.1" x2="188.1" y2="199.7"/>
		<line class="st11" x1="209.6" y1="221.1" x2="930" y2="937.2"/>
		<line class="st10" x1="940.8" y1="947.9" x2="951.4" y2="958.5"/>
	</g>
</g>
<g>
	<g>
		<line class="st10" x1="947.7" y1="187" x2="937.1" y2="197.6"/>
		<line class="st11" x1="915.7" y1="219.1" x2="199.6" y2="939.6"/>
		<line class="st10" x1="188.9" y1="950.3" x2="178.3" y2="961"/>
	</g>
</g>
<g>
	<g>
		<line class="st0" x1="562.7" y1="26.7" x2="562.7" y2="41.7"/>
		<line class="st1" x1="562.8" y1="72" x2="565.8" y2="1087.8"/>
		<line class="st0" x1="565.9" y1="1103" x2="565.9" y2="1118"/>
	</g>
</g>
<g>
	<g>
		<line class="st10" x1="1110.6" y1="571" x2="1095.6" y2="571.1"/>
		<line class="st11" x1="1065.3" y1="571.1" x2="49.4" y2="574.2"/>
		<line class="st10" x1="34.3" y1="574.2" x2="19.3" y2="574.3"/>
	</g>
</g>
<polygon class="st12" points="565.6,326.7 498.7,507 315.9,573.9 499.5,640.9 565.6,817.9 633.3,638.4 813.7,572.3 632.5,507 "/>
<circle class="st13" cx="515.7" cy="551.8" r="6.5"/>
<circle class="st13" cx="609.8" cy="551.3" r="6.5"/>
<path class="st10" d="M596.6,580c0,18.8-15.2,34-34,34s-34-15.2-34-34"/>
</svg>
