<svg class="vk" version="1.1" id="sparkle" xmlns="http://www.w3.org/2000/svg" xmlns:xlink="http://www.w3.org/1999/xlink" x="0px" y="0px"
	 viewBox="0 0 85.9 52.7" style="enable-background:new 0 0 85.9 52.7;" xml:space="preserve">
<style type="text/css">
	.llq{fill:none;stroke:#FFFFFF;stroke-width:0.75;stroke-miterlimit:10;}
</style>
<path class="llq" d="M5.2,3l13,0l12.4,17.5c0.5,0.6,1.5,0.4,1.6-0.3l2.2-10.6c0.1-0.4,0-0.9-0.2-1.2l-2.3-3.6C31.4,4,32,3,32.9,3
	h15.4c1,0,1.8,0.8,1.8,1.8l0.5,16.7c0,1.1,1.4,1.6,2.1,0.7L65.1,3.8c0.4-0.6,1.2-1,1.9-1h14c1.5,0,2.5,1.6,1.7,3L70.5,27.2
	c-0.4,0.7-0.4,1.6,0.1,2.3l11.3,16.9c0.8,1.3-0.1,2.9-1.6,2.9h-15c-0.6,0-1.3-0.3-1.7-0.7l-9.1-9.2c-0.6-0.6-1.5-0.4-1.9,0.3
	l-4.1,8.8c-0.2,0.5-0.6,0.8-1.2,0.8c-3.2,0.4-14.9,1-24.5-9.3C12.5,28.8,4.7,12.7,3.7,4.7C3.6,3.8,4.3,3,5.2,3z"/>
</svg>
